<svg class="card-icon " viewBox="0 0 143 107" fill="none" xmlns="http://www.w3.org/2000/svg">
    <path
        d="M131.083 0H11.9167C5.42208 0.237778 0.238333 5.40944 0 11.8889V95.1111C0.238333 101.591 5.42208 106.762 11.9167 107H131.083C137.578 106.762 142.762 101.591 143 95.1111V11.8889C142.762 5.40944 137.578 0.237778 131.083 0ZM131.083 95.1111H11.9167V11.8889H131.083V95.1111ZM83.4167 83.2222V75.7917C83.4167 65.9239 63.5158 60.9306 53.625 60.9306C43.7342 60.9306 23.8333 65.9239 23.8333 75.7917V83.2222H83.4167ZM53.625 23.7778C49.6744 23.7778 45.8856 25.3435 43.0921 28.1305C40.2985 30.9175 38.7292 34.6975 38.7292 38.6389C38.7292 40.5905 39.1145 42.523 39.863 44.326C40.6116 46.129 41.7089 47.7673 43.0921 49.1473C45.8856 51.9343 49.6744 53.5 53.625 53.5C55.5812 53.5 57.5181 53.1156 59.3254 52.3688C61.1326 51.6219 62.7747 50.5273 64.1579 49.1473C65.5412 47.7673 66.6384 46.129 67.387 44.326C68.1355 42.523 68.5208 40.5905 68.5208 38.6389C68.5208 36.6873 68.1355 34.7548 67.387 32.9518C66.6384 31.1488 65.5412 29.5105 64.1579 28.1305C62.7747 26.7505 61.1326 25.6559 59.3254 24.909C57.5181 24.1622 55.5812 23.7778 53.625 23.7778ZM83.4167 23.7778V29.7222H119.167V23.7778H83.4167ZM83.4167 35.6667V41.6111H119.167V35.6667H83.4167ZM83.4167 47.5556V53.5H107.25V47.5556H83.4167Z"
        fill="white" fill-opacity="0.8" />
</svg>