<svg viewBox="0 0 18 12" fill="none" xmlns="http://www.w3.org/2000/svg">
	<path
		d="M0 0H18V12H0V0ZM9 3C9.79565 3 10.5587 3.31607 11.1213 3.87868C11.6839 4.44129 12 5.20435 12 6C12 6.79565 11.6839 7.55871 11.1213 8.12132C10.5587 8.68393 9.79565 9 9 9C8.20435 9 7.44129 8.68393 6.87868 8.12132C6.31607 7.55871 6 6.79565 6 6C6 5.20435 6.31607 4.44129 6.87868 3.87868C7.44129 3.31607 8.20435 3 9 3ZM4 2C4 2.53043 3.78929 3.03914 3.41421 3.41421C3.03914 3.78929 2.53043 4 2 4V8C2.53043 8 3.03914 8.21071 3.41421 8.58579C3.78929 8.96086 4 9.46957 4 10H14C14 9.46957 14.2107 8.96086 14.5858 8.58579C14.9609 8.21071 15.4696 8 16 8V4C15.4696 4 14.9609 3.78929 14.5858 3.41421C14.2107 3.03914 14 2.53043 14 2H4Z"
		fill="url(#paint0_linear_213_185)" />
	<defs>
		<linearGradient id="paint0_linear_213_185" x1="0" y1="0" x2="18.5967" y2="17.4619" gradientUnits="userSpaceOnUse">
			<stop stop-color="#121B67" />
			<stop offset="0.554587" stop-color="#ED4055" />
			<stop offset="0.96845" stop-color="#EDD62C" />
			<stop offset="0.96855" stop-color="#EDDA2B" />
			<stop offset="0.96865" stop-color="#EDDE2A" />
			<stop offset="0.96875" stop-color="#EDE229" />
			<stop offset="0.9992" stop-color="#615E11" />
			<stop offset="0.9993" stop-color="#EDE927" />
			<stop offset="0.9994" stop-color="#EDEB27" />
			<stop offset="0.9995" stop-color="#EDEC26" />
			<stop offset="0.9996" stop-color="#EDEE26" />
			<stop offset="0.9997" stop-color="#EDF224" />
			<stop offset="0.9998" stop-color="#EDF623" />
			<stop offset="0.9999" stop-color="#EDFB22" />
			<stop offset="1" stop-color="#EDFF21" />
			<stop offset="1" stop-color="#EDFF21" />
			<stop offset="1" stop-color="#EDFF21" />
			<stop offset="1" stop-color="#EDFF21" />
			<stop offset="1" stop-color="#EDFF21" />
			<stop offset="1" stop-color="#EDFF21" />
		</linearGradient>
	</defs>
</svg>