<!-- For more features use the AutoHTML plugin window in figma ... --> 
<svg class="vector" width="57" height="42" viewBox="0 0 57 42" fill="none" xmlns="http://www.w3.org/2000/svg">
  	<path d="M51.3 21C51.3 22.3924 51.9005 23.7277 52.9695 24.7123C54.0384 25.6969 55.4883 26.25 57 26.25V36.75C57 38.1424 56.3995 39.4777 55.3305 40.4623C54.2615 41.4469 52.8117 42 51.3 42H5.7C4.18827 42 2.73845 41.4469 1.66949 40.4623C0.600534 39.4777 0 38.1424 0 36.75V26.25C3.1635 26.25 5.7 23.8875 5.7 21C5.7 19.6076 5.09947 18.2723 4.03051 17.2877C2.96155 16.3031 1.51173 15.75 0 15.75V5.25C0 2.33625 2.565 0 5.7 0H51.3C52.8117 0 54.2615 0.553123 55.3305 1.53769C56.3995 2.52226 57 3.85761 57 5.25V15.75C55.4883 15.75 54.0384 16.3031 52.9695 17.2877C51.9005 18.2723 51.3 19.6076 51.3 21ZM41.325 32.1562C41.325 28.2188 32.775 26.25 28.5 26.25C24.225 26.25 15.675 28.2188 15.675 32.1562V34.125H41.325V32.1562ZM28.5 21.6562C30.2007 21.6562 31.8317 21.034 33.0343 19.9263C34.2369 18.8187 34.9125 17.3164 34.9125 15.75C34.9125 14.1836 34.2369 12.6813 33.0343 11.5737C31.8317 10.466 30.2007 9.84375 28.5 9.84375C26.7993 9.84375 25.1683 10.466 23.9657 11.5737C22.7631 12.6813 22.0875 14.1836 22.0875 15.75C22.0875 17.3164 22.7631 18.8187 23.9657 19.9263C25.1683 21.034 26.7993 21.6562 28.5 21.6562Z" fill="url(#paint0_linear_83_423)"/>
  	<path d="M51.3 21C51.3 22.3924 51.9005 23.7277 52.9695 24.7123C54.0384 25.6969 55.4883 26.25 57 26.25V36.75C57 38.1424 56.3995 39.4777 55.3305 40.4623C54.2615 41.4469 52.8117 42 51.3 42H5.7C4.18827 42 2.73845 41.4469 1.66949 40.4623C0.600534 39.4777 0 38.1424 0 36.75V26.25C3.1635 26.25 5.7 23.8875 5.7 21C5.7 19.6076 5.09947 18.2723 4.03051 17.2877C2.96155 16.3031 1.51173 15.75 0 15.75V5.25C0 2.33625 2.565 0 5.7 0H51.3C52.8117 0 54.2615 0.553123 55.3305 1.53769C56.3995 2.52226 57 3.85761 57 5.25V15.75C55.4883 15.75 54.0384 16.3031 52.9695 17.2877C51.9005 18.2723 51.3 19.6076 51.3 21ZM41.325 32.1562C41.325 28.2188 32.775 26.25 28.5 26.25C24.225 26.25 15.675 28.2188 15.675 32.1562V34.125H41.325V32.1562ZM28.5 21.6562C30.2007 21.6562 31.8317 21.034 33.0343 19.9263C34.2369 18.8187 34.9125 17.3164 34.9125 15.75C34.9125 14.1836 34.2369 12.6813 33.0343 11.5737C31.8317 10.466 30.2007 9.84375 28.5 9.84375C26.7993 9.84375 25.1683 10.466 23.9657 11.5737C22.7631 12.6813 22.0875 14.1836 22.0875 15.75C22.0875 17.3164 22.7631 18.8187 23.9657 19.9263C25.1683 21.034 26.7993 21.6562 28.5 21.6562Z" fill="url(#paint1_linear_83_423)"/>
  	<path d="M51.3 21C51.3 22.3924 51.9005 23.7277 52.9695 24.7123C54.0384 25.6969 55.4883 26.25 57 26.25V36.75C57 38.1424 56.3995 39.4777 55.3305 40.4623C54.2615 41.4469 52.8117 42 51.3 42H5.7C4.18827 42 2.73845 41.4469 1.66949 40.4623C0.600534 39.4777 0 38.1424 0 36.75V26.25C3.1635 26.25 5.7 23.8875 5.7 21C5.7 19.6076 5.09947 18.2723 4.03051 17.2877C2.96155 16.3031 1.51173 15.75 0 15.75V5.25C0 2.33625 2.565 0 5.7 0H51.3C52.8117 0 54.2615 0.553123 55.3305 1.53769C56.3995 2.52226 57 3.85761 57 5.25V15.75C55.4883 15.75 54.0384 16.3031 52.9695 17.2877C51.9005 18.2723 51.3 19.6076 51.3 21ZM41.325 32.1562C41.325 28.2188 32.775 26.25 28.5 26.25C24.225 26.25 15.675 28.2188 15.675 32.1562V34.125H41.325V32.1562ZM28.5 21.6562C30.2007 21.6562 31.8317 21.034 33.0343 19.9263C34.2369 18.8187 34.9125 17.3164 34.9125 15.75C34.9125 14.1836 34.2369 12.6813 33.0343 11.5737C31.8317 10.466 30.2007 9.84375 28.5 9.84375C26.7993 9.84375 25.1683 10.466 23.9657 11.5737C22.7631 12.6813 22.0875 14.1836 22.0875 15.75C22.0875 17.3164 22.7631 18.8187 23.9657 19.9263C25.1683 21.034 26.7993 21.6562 28.5 21.6562Z" fill="url(#paint2_linear_83_423)"/>
  	<path d="M51.3 21C51.3 22.3924 51.9005 23.7277 52.9695 24.7123C54.0384 25.6969 55.4883 26.25 57 26.25V36.75C57 38.1424 56.3995 39.4777 55.3305 40.4623C54.2615 41.4469 52.8117 42 51.3 42H5.7C4.18827 42 2.73845 41.4469 1.66949 40.4623C0.600534 39.4777 0 38.1424 0 36.75V26.25C3.1635 26.25 5.7 23.8875 5.7 21C5.7 19.6076 5.09947 18.2723 4.03051 17.2877C2.96155 16.3031 1.51173 15.75 0 15.75V5.25C0 2.33625 2.565 0 5.7 0H51.3C52.8117 0 54.2615 0.553123 55.3305 1.53769C56.3995 2.52226 57 3.85761 57 5.25V15.75C55.4883 15.75 54.0384 16.3031 52.9695 17.2877C51.9005 18.2723 51.3 19.6076 51.3 21ZM41.325 32.1562C41.325 28.2188 32.775 26.25 28.5 26.25C24.225 26.25 15.675 28.2188 15.675 32.1562V34.125H41.325V32.1562ZM28.5 21.6562C30.2007 21.6562 31.8317 21.034 33.0343 19.9263C34.2369 18.8187 34.9125 17.3164 34.9125 15.75C34.9125 14.1836 34.2369 12.6813 33.0343 11.5737C31.8317 10.466 30.2007 9.84375 28.5 9.84375C26.7993 9.84375 25.1683 10.466 23.9657 11.5737C22.7631 12.6813 22.0875 14.1836 22.0875 15.75C22.0875 17.3164 22.7631 18.8187 23.9657 19.9263C25.1683 21.034 26.7993 21.6562 28.5 21.6562Z" fill="url(#paint3_radial_83_423)"/>
  	<path d="M51.3 21C51.3 22.3924 51.9005 23.7277 52.9695 24.7123C54.0384 25.6969 55.4883 26.25 57 26.25V36.75C57 38.1424 56.3995 39.4777 55.3305 40.4623C54.2615 41.4469 52.8117 42 51.3 42H5.7C4.18827 42 2.73845 41.4469 1.66949 40.4623C0.600534 39.4777 0 38.1424 0 36.75V26.25C3.1635 26.25 5.7 23.8875 5.7 21C5.7 19.6076 5.09947 18.2723 4.03051 17.2877C2.96155 16.3031 1.51173 15.75 0 15.75V5.25C0 2.33625 2.565 0 5.7 0H51.3C52.8117 0 54.2615 0.553123 55.3305 1.53769C56.3995 2.52226 57 3.85761 57 5.25V15.75C55.4883 15.75 54.0384 16.3031 52.9695 17.2877C51.9005 18.2723 51.3 19.6076 51.3 21ZM41.325 32.1562C41.325 28.2188 32.775 26.25 28.5 26.25C24.225 26.25 15.675 28.2188 15.675 32.1562V34.125H41.325V32.1562ZM28.5 21.6562C30.2007 21.6562 31.8317 21.034 33.0343 19.9263C34.2369 18.8187 34.9125 17.3164 34.9125 15.75C34.9125 14.1836 34.2369 12.6813 33.0343 11.5737C31.8317 10.466 30.2007 9.84375 28.5 9.84375C26.7993 9.84375 25.1683 10.466 23.9657 11.5737C22.7631 12.6813 22.0875 14.1836 22.0875 15.75C22.0875 17.3164 22.7631 18.8187 23.9657 19.9263C25.1683 21.034 26.7993 21.6562 28.5 21.6562Z" fill="url(#paint4_radial_83_423)"/>
  	<defs>
    		<linearGradient id="paint0_linear_83_423" x1="0" y1="0" x2="38.3501" y2="55.0033" gradientUnits="userSpaceOnUse">
      			<stop stop-color="#121B67"/>
      			<stop offset="0.554587" stop-color="#ED4055"/>
      			<stop offset="0.96845" stop-color="#EDD62C"/>
      			<stop offset="0.96855" stop-color="#EDDA2B"/>
      			<stop offset="0.96865" stop-color="#EDDE2A"/>
      			<stop offset="0.96875" stop-color="#EDE229"/>
      			<stop offset="0.9992" stop-color="#615E11"/>
      			<stop offset="0.9993" stop-color="#EDE927"/>
      			<stop offset="0.9994" stop-color="#EDEB27"/>
      			<stop offset="0.9995" stop-color="#EDEC26"/>
      			<stop offset="0.9996" stop-color="#EDEE26"/>
      			<stop offset="0.9997" stop-color="#EDF224"/>
      			<stop offset="0.9998" stop-color="#EDF623"/>
      			<stop offset="0.9999" stop-color="#EDFB22"/>
      			<stop offset="1" stop-color="#EDFF21"/>
      			<stop offset="1" stop-color="#EDFF21"/>
      			<stop offset="1" stop-color="#EDFF21"/>
      			<stop offset="1" stop-color="#EDFF21"/>
      			<stop offset="1" stop-color="#EDFF21"/>
      			<stop offset="1" stop-color="#EDFF21"/>
    		</linearGradient>
    		<linearGradient id="paint1_linear_83_423" x1="0" y1="21" x2="57" y2="21" gradientUnits="userSpaceOnUse">
      			<stop stop-color="#DD1818"/>
      			<stop offset="1" stop-color="#322929"/>
    		</linearGradient>
    		<linearGradient id="paint2_linear_83_423" x1="56.8952" y1="-18.06" x2="-10.2189" y2="89.2467" gradientUnits="userSpaceOnUse">
      			<stop offset="0.323815" stop-color="#FF0000"/>
      			<stop offset="1" stop-color="#322929"/>
    		</linearGradient>
    		<radialGradient id="paint3_radial_83_423" cx="0" cy="0" r="1" gradientUnits="userSpaceOnUse" gradientTransform="translate(-66.8904 -39.2778) rotate(26.1431) scale(350.324 433.834)">
      			<stop offset="0.125536"/>
      			<stop offset="0.318171" stop-color="#FF0000"/>
      			<stop offset="0.502338" stop-color="#020202"/>
    		</radialGradient>
    		<radialGradient id="paint4_radial_83_423" cx="0" cy="0" r="1" gradientUnits="userSpaceOnUse" gradientTransform="translate(44.404 12.95) rotate(16.2588) scale(46.2539 57.6806)">
      			<stop stop-color="#121B67"/>
      			<stop offset="0.635422" stop-color="#ED4055"/>
      			<stop offset="0.96845" stop-color="#EDD62C"/>
      			<stop offset="0.96855" stop-color="#EDDA2B"/>
      			<stop offset="0.96865" stop-color="#EDDE2A"/>
      			<stop offset="0.96875" stop-color="#EDE229"/>
      			<stop offset="0.9993" stop-color="#EDE927"/>
      			<stop offset="0.9994" stop-color="#EDEB27"/>
      			<stop offset="0.9995" stop-color="#EDEC26"/>
      			<stop offset="0.9996" stop-color="#EDEE26"/>
      			<stop offset="0.9997" stop-color="#EDF224"/>
      			<stop offset="0.9998" stop-color="#EDF623"/>
      			<stop offset="0.9999" stop-color="#EDFB22"/>
      			<stop offset="1" stop-color="#EDFF21"/>
      			<stop offset="1" stop-color="#EDFF21"/>
      			<stop offset="1" stop-color="#EDFF21"/>
      			<stop offset="1" stop-color="#EDFF21"/>
      			<stop offset="1" stop-color="#EDFF21"/>
      			<stop offset="1" stop-color="#EDFF21"/>
    		</radialGradient>
  	</defs>
</svg>
