<svg viewBox="0 0 21 19" fill="none" xmlns="http://www.w3.org/2000/svg">
		<path
				d="M15.625 4.16667L14.1563 5.63542L16.8438 8.33333H6.25V10.4167H16.8438L14.1563 13.1042L15.625 14.5833L20.8333 9.375L15.625 4.16667ZM2.08333 2.08333H10.4167V0H2.08333C0.9375 0 0 0.9375 0 2.08333V16.6667C0 17.8125 0.9375 18.75 2.08333 18.75H10.4167V16.6667H2.08333V2.08333Z"
				fill="#D43449" />
		<path
				d="M15.625 4.16667L14.1563 5.63542L16.8438 8.33333H6.25V10.4167H16.8438L14.1563 13.1042L15.625 14.5833L20.8333 9.375L15.625 4.16667ZM2.08333 2.08333H10.4167V0H2.08333C0.9375 0 0 0.9375 0 2.08333V16.6667C0 17.8125 0.9375 18.75 2.08333 18.75H10.4167V16.6667H2.08333V2.08333Z"
				fill="url(#paint0_linear_432_113)" />
		<defs>
				<linearGradient id="paint0_linear_432_113" x1="0" y1="0" x2="18.0132" y2="21.1517"
						gradientUnits="userSpaceOnUse">
						<stop stop-color="#9C041F" />
						<stop offset="0.554587" stop-color="#E84558" />
						<stop offset="1" stop-color="#A50906" />
				</linearGradient>
		</defs>
</svg>