<svg width="22" height="17" viewBox="0 0 22 17" fill="none" xmlns="http://www.w3.org/2000/svg">
	<path d="M1 6.35714H21M5.44444 11.7143H6.55556M11 11.7143H12.1111M4.33333 16H17.6667C18.5507 16 19.3986 15.6614 20.0237 15.0586C20.6488 14.4558 21 13.6382 21 12.7857V4.21429C21 3.3618 20.6488 2.54424 20.0237 1.94144C19.3986 1.33865 18.5507 1 17.6667 1H4.33333C3.44928 1 2.60143 1.33865 1.97631 1.94144C1.35119 2.54424 1 3.3618 1 4.21429V12.7857C1 13.6382 1.35119 14.4558 1.97631 15.0586C2.60143 15.6614 3.44928 16 4.33333 16Z" stroke="#940000" stroke-width="1.5" stroke-linecap="round" stroke-linejoin="round"/>
	<path d="M1 6.35714H21M5.44444 11.7143H6.55556M11 11.7143H12.1111M4.33333 16H17.6667C18.5507 16 19.3986 15.6614 20.0237 15.0586C20.6488 14.4558 21 13.6382 21 12.7857V4.21429C21 3.3618 20.6488 2.54424 20.0237 1.94144C19.3986 1.33865 18.5507 1 17.6667 1H4.33333C3.44928 1 2.60143 1.33865 1.97631 1.94144C1.35119 2.54424 1 3.3618 1 4.21429V12.7857C1 13.6382 1.35119 14.4558 1.97631 15.0586C2.60143 15.6614 3.44928 16 4.33333 16Z" stroke="url(#paint0_radial_1_581)" stroke-width="1.5" stroke-linecap="round" stroke-linejoin="round"/>
	<defs>
		<radialGradient id="paint0_radial_1_581" cx="0" cy="0" r="1" gradientUnits="userSpaceOnUse" gradientTransform="translate(16.5804 5.625) rotate(16.5334) scale(16.2523 20.5712)">
		<stop stop-color="#121B67"/>
		<stop offset="0.635422" stop-color="#ED4055"/>
		<stop offset="0.96845" stop-color="#EDD62C"/>
		<stop offset="0.96855" stop-color="#EDDA2B"/>
		<stop offset="0.96865" stop-color="#EDDE2A"/>
		<stop offset="0.96875" stop-color="#EDE229"/>
		<stop offset="0.9992" stop-color="#615E11"/>
		<stop offset="0.9993" stop-color="#EDE927"/>
		<stop offset="0.9994" stop-color="#EDEB27"/>
		<stop offset="0.9995" stop-color="#EDEC26"/>
		<stop offset="0.9996" stop-color="#EDEE26"/>
		<stop offset="0.9997" stop-color="#EDF224"/>
		<stop offset="0.9998" stop-color="#EDF623"/>
		<stop offset="0.9999" stop-color="#EDFB22"/>
		<stop offset="1" stop-color="#EDFF21"/>
		<stop offset="1" stop-color="#EDFF21"/>
		<stop offset="1" stop-color="#EDFF21"/>
		<stop offset="1" stop-color="#EDFF21"/>
		<stop offset="1" stop-color="#EDFF21"/>
		<stop offset="1" stop-color="#EDFF21"/>
		</radialGradient>
	</defs>
</svg>
