 <svg viewBox="0 0 19 15" fill="none" xmlns="http://www.w3.org/2000/svg">
    <path
        d="M16.6629 7.56981C16.6629 8.0163 16.855 8.44449 17.1969 8.76021C17.5389 9.07592 18.0027 9.25328 18.4862 9.25328V12.6202C18.4862 13.0667 18.2941 13.4949 17.9522 13.8106C17.6103 14.1263 17.1465 14.3037 16.6629 14.3037H2.07626C1.59268 14.3037 1.12891 14.1263 0.786971 13.8106C0.44503 13.4949 0.25293 13.0667 0.25293 12.6202V9.25328C1.26488 9.25328 2.07626 8.49572 2.07626 7.56981C2.07626 7.12333 1.88416 6.69513 1.54222 6.37942C1.20028 6.06371 0.736507 5.88634 0.25293 5.88634V2.51941C0.25293 1.58508 1.07343 0.835938 2.07626 0.835938H16.6629C17.1465 0.835938 17.6103 1.0133 17.9522 1.32901C18.2941 1.64473 18.4862 2.07292 18.4862 2.51941V5.88634C18.0027 5.88634 17.5389 6.06371 17.1969 6.37942C16.855 6.69513 16.6629 7.12333 16.6629 7.56981ZM13.4721 11.1472C13.4721 9.88458 10.7371 9.25328 9.36958 9.25328C8.00208 9.25328 5.26709 9.88458 5.26709 11.1472V11.7785H13.4721V11.1472ZM9.36958 7.78025C9.91361 7.78025 10.4353 7.58071 10.82 7.22554C11.2047 6.87036 11.4208 6.38864 11.4208 5.88634C11.4208 5.38405 11.2047 4.90233 10.82 4.54715C10.4353 4.19198 9.91361 3.99244 9.36958 3.99244C8.82556 3.99244 8.30382 4.19198 7.91913 4.54715C7.53445 4.90233 7.31834 5.38405 7.31834 5.88634C7.31834 6.38864 7.53445 6.87036 7.91913 7.22554C8.30382 7.58071 8.82556 7.78025 9.36958 7.78025Z"
        fill="url(#paint0_radial_213_448)" />
    <defs>
        <radialGradient id="paint0_radial_213_448" cx="0" cy="0" r="1"
            gradientUnits="userSpaceOnUse"
            gradientTransform="translate(14.457 4.98849) rotate(16.2963) scale(14.7986 18.4924)">
            <stop stop-color="#121B67" />
            <stop offset="0.635422" stop-color="#ED4055" />
            <stop offset="0.96845" stop-color="#EDD62C" />
            <stop offset="0.96855" stop-color="#EDDA2B" />
            <stop offset="0.96865" stop-color="#EDDE2A" />
            <stop offset="0.96875" stop-color="#EDE229" />
            <stop offset="0.9992" stop-color="#615E11" />
            <stop offset="0.9993" stop-color="#EDE927" />
            <stop offset="0.9994" stop-color="#EDEB27" />
            <stop offset="0.9995" stop-color="#EDEC26" />
            <stop offset="0.9996" stop-color="#EDEE26" />
            <stop offset="0.9997" stop-color="#EDF224" />
            <stop offset="0.9998" stop-color="#EDF623" />
            <stop offset="0.9999" stop-color="#EDFB22" />
            <stop offset="1" stop-color="#EDFF21" />
            <stop offset="1" stop-color="#EDFF21" />
            <stop offset="1" stop-color="#EDFF21" />
            <stop offset="1" stop-color="#EDFF21" />
            <stop offset="1" stop-color="#EDFF21" />
            <stop offset="1" stop-color="#EDFF21" />
        </radialGradient>
    </defs>
</svg>